PathFileType	4	(X/Y/Z)	C:/Users/beibeiliu/ov580/test_trc\sequence.18_training_dense_right.trc
DataRate	CameraRate	NumFrames	NumMarkers	Units	OrigDataRate	OrigDataStartFrame	OrigNumFrames
120	120	10	19	mm	120	253	336
Frame#	Time	ThumbCMC			ThumbMCP			ThumbIP			ThumbTip			IndexMCP			IndexPIP			IndexTip			MiddleMCP			MiddlePIP			MiddleTip			RingMCP			RingPIP			RingTip			PinkyMCP			PinkyPIP			PinkyTip			BackHand1			BackHand2			BackHand3	
		X0	Y0	Z0	X1	Y1	Z1	X2	Y2	Z2	X3	Y3	Z3	X4	Y4	Z4	X5	Y5	Z5	X6	Y6	Z6	X7	Y7	Z7	X8	Y8	Z8	X9	Y9	Z9	X10	Y10	Z10	X11	Y11	Z11	X12	Y12	Z12	X13	Y13	Z13	X14	Y14	Z14	X15	Y15	Z15	X16	Y16	Z16	X17	Y17	Z17	X18	Y18	Z18	
252	2.1	212.003	10.9276	49.14	205.018	22.1696	20.9488	204.573	34.3748	2.46655	210.92	46.4707	-12.9883	214.175	74.8935	32.8968	213.794	81.2263	3.48281	217.51	50.8908	-4.95167	229.444	83.3145	30.3187	233.824	89.2642	2.24076	234.566	54.0616	-2.67896	248.535	78.8419	32.0457	250.292	82.4508	5.08703	248.231	52.8379	-0.962961	264.139	70.4176	38.6303	267.042	80.277	16.0368	260.773	62.3097	-1.79382	253.518	45.9006	67.4739	257.191	24.6292	80.344	228.974	34.2676	71.48	
253	2.10833	209.164	16.0163	46.924	205.202	19.6717	20.6839	200.23	34.8931	-3.3776	204.243	45.6116	-21.7523	207.136	75.9842	25.4624	207.73	78.9615	-3.54426	211.272	51.4931	-10.4547	225.021	83.1336	22.4696	229.485	83.8565	-8.58294	228.912	51.1177	-9.28062	247.468	80.9852	23.3645	244.385	80.1336	-1.76924	242.13	51.1963	-7.0312	265.451	70.7157	30.7658	261.802	81.0262	10.0117	254.745	62.9081	-9.19219	252.033	48.8697	58.804	252.189	28.7598	76.9449	228.065	37.8221	68.8149	
254	2.11667	209.513	18.1656	45.8168	203.531	23.0139	16.2194	199.884	33.6114	-4.49245	205.916	44.9203	-24.1647	208.064	80.3941	15.1901	207.574	78.2123	-9.96104	207.43	44.7311	-13.279	223.651	83.7227	13.8075	224.289	80.9188	-17.2942	226.031	47.2575	-13.2222	244.335	81.0107	13.1779	239.49	76.2306	-13.425	237.637	46.8738	-12.3311	265.151	72.7291	21.9624	254.916	78.7674	-2.14908	248.673	61.005	-14.0413	253.265	51.2609	54.5655	250.289	35.2621	70.0794	224.998	41.4296	64.1576	
255	2.125	205.258	21.4833	44.0311	198.172	26.1319	11.389	194.098	31.8657	-11.3066	199.522	40.7237	-33.4585	205.366	78.7181	9.45353	202.658	74.7538	-20.3453	205.453	42.2175	-19.5792	223.298	84.9255	1.64961	222.862	77.1972	-26.5825	223.185	47.0114	-22.4801	243.175	78.1641	4.64669	237.893	70.1425	-24.468	233.872	45.6242	-20.3605	263.896	72.286	12.5301	256.768	76.8792	-11.8583	245.563	59.8766	-22.974	249.857	56.6467	44.5804	251.265	37.7028	66.5286	222.245	47.8837	56.7459	
256	2.13333	203.809	30.7547	38.5238	196.636	26.7207	9.2091	193.38	31.5551	-13.5434	197.955	35.093	-32.6097	205.28	79.8161	-2.92046	200.181	73.3845	-28.8953	203.22	42.2674	-27.7945	224.818	82.9173	-6.84536	222.153	72.2224	-36.2852	219.103	40.384	-27.5615	237.709	79.6554	-8.60918	238.726	68.108	-31.9298	231.324	41.821	-28.3944	260.935	73.9888	1.53882	252.592	73.8499	-21.2907	244.821	57.6749	-32.1835	245.721	60.324	39.128	248.075	47.3506	59.8246	225.01	54.4989	53.2629	
257	2.14167	199.062	32.4885	39.2196	194.759	27.6304	9.74994	189.244	27.0019	-13.4458	195.337	31.3896	-36.1421	199.237	78.9339	-11.3896	201.44	66.3277	-37.23	201.799	39.4807	-33.2902	217.893	81.9488	-17.0717	217.468	68.2343	-43.0015	218.759	36.2455	-32.6199	236.436	77.3511	-15.3651	234.289	62.8054	-39.0612	228.176	38.0232	-32.9662	258.314	70.9912	-5.02725	253.832	71.5067	-27.1482	242.448	49.5843	-38.512	245.393	65.0185	29.9882	247.725	54.0814	54.5641	221.793	59.2393	46.9217	
258	2.15	199.227	36.23	38.599	187.118	27.7078	7.79419	186.857	26.2834	-14.0462	192.655	25.5678	-38.2102	200.223	77.8694	-14.9593	197.821	63.2465	-42.3544	200.504	38.3625	-38.4296	220.248	78.2788	-23.3238	213.361	59.7982	-49.0304	216.256	31.3998	-34.6983	239.08	74.5956	-23.8436	231.455	57.3393	-44.211	227.747	30.9002	-32.7022	254.434	66.8572	-7.72777	252.914	64.6437	-34.6542	238.101	44.2961	-40.3107	242.792	68.2136	28.1858	248.61	58.337	49.2332	217.765	66.0983	42.0898	
259	2.15833	195.641	41.9208	37.5894	188.907	30.4581	8.99328	186.002	26.6333	-12.8497	189.79	21.6702	-34.3876	194.839	76.4866	-21.1628	192.625	61.0361	-44.1233	194.273	31.6422	-38.6334	218.439	75.0632	-30.8745	210.555	55.9363	-50.5254	216.104	28.0207	-38.1909	233.665	71.1973	-23.3203	231.266	55.3948	-44.4018	223.104	29.9661	-34.8507	255.426	67.1624	-13.9911	248.145	58.4876	-38.1586	236.905	39.9234	-42.4072	243.379	70.947	22.0478	247.157	60.5874	49.3303	214.485	67.9695	40.4777	
260	2.16667	192.849	44.7804	38.3387	186.154	31.1173	13.5806	181.264	25.1753	-11.2497	185.822	18.3406	-35.194	198.564	74.4565	-25.6345	195.898	59.7581	-46.8267	193.707	29.2604	-39.1621	217.248	72.0005	-28.7738	212.527	52.175	-52.6935	211.827	23.961	-35.951	233.142	67.3442	-27.3438	227.469	48.2805	-46.1864	222.185	24.0962	-32.5826	254.593	64.574	-16.497	249.67	55.6838	-37.6425	237.645	34.789	-40.7416	242.138	68.8727	22.7762	242.706	65.0661	47.7126	216.026	73.8576	33.6319	
261	2.175	194.273	49.6226	38.0446	184.563	33.6312	9.93745	183.664	26.6597	-14.0305	191.224	19.4384	-33.1603	197.445	72.2762	-26.4121	190.546	57.2939	-48.1659	193.24	27.5174	-40.9194	215.353	69.1009	-34.3595	214.835	45.4894	-52.1445	209.441	19.3715	-31.3035	234.747	64.0043	-30.6501	231.106	44.3318	-46.1353	220.382	20.4159	-29.1972	252.674	59.9488	-12.8873	250.714	50.8261	-38.3713	232.759	29.9159	-37.8926	240.996	71.6788	18.7165	238.973	68.9351	45.3115	214.519	74.6271	32.8503	
